<?xml version="1.0" encoding="utf-8"?>
<!-- Generator: Adobe Illustrator 25.2.3, SVG Export Plug-In . SVG Version: 6.00 Build 0)  -->
<svg version="1.1" xmlns="http://www.w3.org/2000/svg" xmlns:xlink="http://www.w3.org/1999/xlink" x="0px" y="0px"
	 viewBox="0 0 809.61 406.94" style="enable-background:new 0 0 809.61 406.94;" xml:space="preserve">
<style type="text/css">
	.st0{fill:#FFFDFE;}
	.st1{fill:#0566FF;stroke:#000000;stroke-width:6;stroke-miterlimit:10;}
	.st2{fill:#231F20;}
	.st3{fill:#0566FF;stroke:#000000;stroke-miterlimit:10;}
	.st4{font-family:'Birra2-Stout';}
	.st5{font-size:57.2906px;}
</style>
<g id="Layer_1">
	<path class="st0" d="M450.82,40.88c0,0-156.78,112.43-356.62,203.71c40.89,2.31,279.76-3.22,376.32,77.23
		C536.29,183.2,450.82,40.88,450.82,40.88z"/>
	<ellipse class="st1" cx="469.62" cy="173.61" rx="105.73" ry="109.38"/>
	<ellipse class="st2" cx="498.04" cy="174.65" rx="55.68" ry="86.46"/>
	<path class="st2" d="M485.42,317.29C283.33,204.86,85.71,244.93,79.17,244.44l-61.44,5.23l60.74-20.17
		C352.08,135.15,418.75,46.17,447.22,25.33l84.03-12.14C529.6,14.33,384.9,122.03,187.5,215.28c42.98,1.7,226.39,5.89,336.19,106.61
		L485.42,317.29z"/>
	<ellipse class="st1" cx="694.44" cy="173.61" rx="105.73" ry="109.38"/>
	<ellipse class="st2" cx="721.92" cy="174.65" rx="56.64" ry="86.46"/>
</g>
<g id="Layer_2">
	<text transform="matrix(0.6458 0 0 1 27.6002 383.507)" class="st3 st4 st5">Visual Optimization and Organization</text>
</g>
</svg>
